<svg width="38" height="38" viewBox="0 0 38 38" fill="none" xmlns="http://www.w3.org/2000/svg">
<g clip-path="url(#clip0_11_2832)">
<path d="M33 0H5C2.23858 0 0 2.23858 0 5V33C0 35.7614 2.23858 38 5 38H33C35.7614 38 38 35.7614 38 33V5C38 2.23858 35.7614 0 33 0Z" fill="#6437C4"/>
<path d="M19 7.27472C16.2171 7.27472 13.4967 8.09995 11.1828 9.64605C8.8689 11.1922 7.06543 13.3897 6.00045 15.9608C4.93548 18.5318 4.65683 21.361 5.19975 24.0904C5.74267 26.8198 7.08277 29.327 9.05058 31.2948C11.0184 33.2626 13.5255 34.6027 16.255 35.1456C18.9844 35.6886 21.8136 35.4099 24.3846 34.3449C26.9557 33.28 29.1532 31.4765 30.6993 29.1626C32.2454 26.8487 33.0707 24.1283 33.0707 21.3454C33.0709 19.4975 32.7071 17.6677 32 15.9605C31.293 14.2533 30.2565 12.7021 28.9499 11.3955C27.6433 10.0888 26.0921 9.05242 24.3849 8.34538C22.6776 7.63833 20.8479 7.27452 19 7.27472ZM19 34.2441C16.4489 34.2441 13.9551 33.4876 11.8339 32.0703C9.7127 30.6529 8.05944 28.6384 7.08317 26.2815C6.10689 23.9246 5.85145 21.331 6.34915 18.8289C6.84685 16.3268 8.07534 14.0285 9.87926 12.2246C11.6832 10.4207 13.9815 9.19218 16.4836 8.69448C18.9857 8.19678 21.5792 8.45222 23.9362 9.4285C26.2931 10.4048 28.3076 12.058 29.7249 14.1792C31.1423 16.3004 31.8988 18.7942 31.8988 21.3454C31.8988 24.7663 30.5398 28.0471 28.1208 30.4661C25.7018 32.8851 22.421 34.2441 19 34.2441Z" fill="white"/>
<path d="M19.5867 21.3454C19.5867 21.4614 19.5523 21.5748 19.4878 21.6713C19.4234 21.7678 19.3317 21.843 19.2245 21.8874C19.1173 21.9318 18.9993 21.9434 18.8855 21.9208C18.7717 21.8982 18.6672 21.8423 18.5851 21.7602C18.5031 21.6782 18.4472 21.5736 18.4245 21.4598C18.4019 21.346 18.4135 21.228 18.4579 21.1208C18.5023 21.0136 18.5775 20.922 18.674 20.8575C18.7705 20.793 18.8839 20.7586 19 20.7586C19.1556 20.7586 19.3048 20.8204 19.4149 20.9305C19.5249 21.0405 19.5867 21.1897 19.5867 21.3454Z" fill="white"/>
<path d="M19 9.62009C16.681 9.62009 14.414 10.3078 12.4858 11.5962C10.5576 12.8845 9.05472 14.7158 8.16726 16.8583C7.2798 19.0008 7.0476 21.3584 7.50002 23.6329C7.95245 25.9073 9.06917 27.9966 10.709 29.6364C12.3488 31.2762 14.438 32.3929 16.7125 32.8454C18.987 33.2978 21.3446 33.0656 23.4871 32.1781C25.6296 31.2907 27.4608 29.7878 28.7492 27.8596C30.0376 25.9314 30.7253 23.6644 30.7253 21.3454C30.7255 19.8055 30.4223 18.2807 29.8332 16.8581C29.244 15.4354 28.3803 14.1427 27.2915 13.0539C26.2026 11.9651 24.91 11.1014 23.4873 10.5122C22.0646 9.92303 20.5398 9.61989 19 9.62009ZM19 11.9639C19.4179 11.9644 19.8352 11.9923 20.2494 12.0475L20.0974 13.2088C19.7341 13.1615 19.368 13.1376 19.0015 13.1374L19 11.9639ZM23.2758 26.448L19.76 22.9277C19.5234 23.0435 19.2635 23.1038 19 23.104C18.615 23.107 18.2395 22.9845 17.9304 22.7551C17.6212 22.5257 17.3951 22.2019 17.2863 21.8326C17.1775 21.4633 17.1919 21.0686 17.3273 20.7082C17.4628 20.3478 17.7119 20.0414 18.037 19.8351C18.3621 19.6289 18.7455 19.5342 19.1292 19.5652C19.513 19.5962 19.8762 19.7514 20.1639 20.0072C20.4516 20.2629 20.6482 20.6055 20.724 20.9829C20.7998 21.3604 20.7506 21.7523 20.5838 22.0993L24.1057 25.6211L23.2758 26.448ZM26.5255 24.624C26.9952 23.546 27.228 22.3797 27.2081 21.204C27.1883 20.0283 26.9163 18.8705 26.4105 17.8089C25.9047 16.7474 25.1769 15.8068 24.2764 15.0507C23.3758 14.2945 22.3234 13.7406 21.1903 13.4262L21.5019 12.2953C22.7966 12.6549 23.999 13.2882 25.028 14.1523C26.057 15.0164 26.8886 16.0913 27.4667 17.3043C28.0447 18.5173 28.3558 19.8402 28.3788 21.1837C28.4018 22.5273 28.1363 23.8601 27.6002 25.0922L26.5255 24.624Z" fill="white"/>
<path d="M8.22474 9.73712L7.39178 10.5686L7.8189 10.9972C8.08541 10.7094 8.36205 10.4323 8.64882 10.1658L8.22474 9.73712Z" fill="white"/>
<path d="M19 6.1013C19.1961 6.1013 19.3921 6.1013 19.5867 6.1165V4.92938H18.4133V6.1165C18.6078 6.1089 18.8039 6.1013 19 6.1013Z" fill="white"/>
<path d="M16.6547 2.58398H21.3454V3.7559H16.6547V2.58398Z" fill="white"/>
<path d="M29.3481 10.1658C29.6349 10.4323 29.9116 10.7094 30.1781 10.9972L30.6067 10.5686L29.7753 9.73712L29.3481 10.1658Z" fill="white"/>
</g>
<defs>
<clipPath id="clip0_11_2832">
<rect width="38" height="38" fill="white"/>
</clipPath>
</defs>
</svg>
