<svg width="54" height="38" viewBox="0 0 54 38" fill="none" xmlns="http://www.w3.org/2000/svg">
<g clip-path="url(#clip0_218_30)">
<path d="M46.5849 0H23.7849C19.5289 0 16.1849 3.344 16.1849 7.6V30.4C16.1849 34.656 19.5289 38 23.7849 38H46.5849C50.8409 38 54.1849 34.656 54.1849 30.4V7.6C54.1849 3.344 50.8409 0 46.5849 0Z" fill="url(#paint0_linear_218_30)"/>
<path fill-rule="evenodd" clip-rule="evenodd" d="M46.8907 24.016C46.8907 20.216 44.7731 15.504 43.2605 12.768L41.8991 10.64C42.0504 11.552 41.8991 12.312 41.7479 13.224C41.4454 13.984 40.9916 14.592 40.5378 15.2C40.5378 13.224 39.9328 11.4 38.8739 9.72799C38.7227 9.42399 38.1176 8.66399 37.6638 7.90399C36.605 6.53599 35.2437 5.31999 33.7311 4.40799C34.3361 5.47199 34.6386 6.68799 34.6386 7.90399C34.6386 9.27199 34.1849 10.184 31.916 13.072C29.7983 15.96 30.2521 20.064 30.2521 20.064C30.1008 19.456 29.7983 18.848 29.4958 18.392C28.8907 17.328 26.6218 15.96 26.4706 15.96C26.4706 16.112 27.5294 18.696 26.1681 20.368C24.3529 22.648 22.9916 24.32 23.2941 27.664C23.7479 31.92 28.5882 33.136 30.8571 33.44C31.4622 33.592 31.916 33.592 31.916 33.592C30.4033 33.136 29.647 31.312 29.4958 30.248C29.3445 29.64 29.4958 29.032 29.647 28.576C29.7983 27.968 30.1008 27.512 30.4033 27.056C30.7059 26.6 31.7647 25.536 32.2185 25.232C33.126 24.472 33.8823 23.256 34.1849 22.04C34.3361 21.128 34.3361 20.216 34.3361 19.456C35.3949 20.064 36.3025 20.976 36.9075 22.04C37.3613 22.8 37.6638 23.712 37.6638 24.776C37.9664 24.472 38.1176 24.168 38.2689 23.864C38.4202 23.408 38.4202 22.952 38.2689 22.648C38.2689 22.648 40.8403 26.144 40.6891 29.336C40.5378 33.288 38.2689 34.048 38.2689 34.048C38.4202 33.592 46.8907 32.528 46.8907 24.016Z" fill="#FCFCFC"/>
<path d="M14.3697 24.32C14.8235 22.04 13.0084 20.52 10.8908 20.52C10.437 20.52 9.07563 20.672 7.71428 21.128L6.20168 18.544L13.916 12.92H4.23529L4.9916 8.81598H21.3277L20.8739 11.704L13.6134 17.024C17.2437 17.328 19.9664 20.672 19.3613 24.168C18.605 28.576 14.2185 32.528 8.01681 32.528C4.53782 32.528 1.81513 31.616 0 29.792L3.02521 26.6C5.44538 28.272 7.41176 28.424 8.77311 28.424C11.6471 28.272 13.916 26.296 14.3697 24.32Z" fill="#FCFCFC"/>
</g>
<defs>
<linearGradient id="paint0_linear_218_30" x1="37.8403" y1="35.5452" x2="30.941" y2="-7.99216" gradientUnits="userSpaceOnUse">
<stop stop-color="#DC2F02"/>
<stop offset="1" stop-color="#FFBA08"/>
</linearGradient>
<clipPath id="clip0_218_30">
<rect width="54" height="38" fill="white"/>
</clipPath>
</defs>
</svg>
