<svg width="120" height="109" viewBox="0 0 120 109" fill="none" xmlns="http://www.w3.org/2000/svg">
<g clip-path="url(#clip0_19_2965)">
<path d="M38.7496 87.8913L38.4357 92.3565L42.1316 89.8656L43.3168 90.5593L40.1835 95.9753L39.2444 95.4271L41.475 91.5537L37.965 93.9355L37.2939 93.545L37.615 89.3029L35.3772 93.1715L34.4213 92.6136L37.5546 87.1976L38.7496 87.8913Z" fill="white"/>
<path d="M52.7532 93.5595L52.4973 94.5758L49.2239 93.7463L48.8473 95.2476L51.7827 95.9923L51.5268 97.0085L48.5914 96.2639L48.2076 97.792L51.5848 98.6482L51.3289 99.6644L46.7954 98.5148L48.3186 92.4414L52.7532 93.5595Z" fill="white"/>
<path d="M62.5419 97.2632C62.5226 96.0384 61.627 95.1943 60.461 95.2113L59.0802 95.2331L59.1478 99.3855L60.5721 99.3613C61.7187 99.3443 62.5612 98.4808 62.5419 97.2632ZM63.761 97.2365C63.7899 99.0629 62.4405 100.39 60.5166 100.421L57.9698 100.462L57.8684 94.1999L60.4586 94.1586C62.3488 94.1271 63.732 95.4029 63.761 97.2365Z" fill="white"/>
<path d="M69.7695 92.924L71.2323 99.0119L70.0712 99.2933L68.6083 93.2054L69.7695 92.924Z" fill="white"/>
<path d="M79.9469 93.1472L77.8105 91.2723L77.9819 94.1222L79.9469 93.1472ZM80.7846 93.8797L78.0543 95.2379L78.1437 96.6714L77.0332 97.2244L76.717 90.3894L77.8274 89.8364L83.0127 94.2483L81.8636 94.8208L80.7846 93.8797Z" fill="white"/>
<path d="M107.585 79.4943C105.815 82.9554 103.619 86.1861 101.629 88.5728L101.487 88.4564C103.421 86.0406 105.617 82.8366 107.401 79.3973C108.664 76.9985 109.709 74.4979 110.503 72.184C110.334 72.315 110.182 72.4338 110.045 72.5381C109.699 73.5058 109.359 74.3742 109.079 75.0703C109.024 75.046 108.91 74.9999 108.855 74.9757C108.84 74.9708 108.898 74.7865 109.014 74.4712C109.132 74.1583 109.301 73.7096 109.504 73.1736C109.543 73.0741 109.579 72.9698 109.617 72.8631C109.465 72.9771 109.308 73.096 109.144 73.2148C108.589 74.7089 107.966 76.1763 107.278 77.6146C108.002 76.0841 108.589 74.6288 109.084 73.2609C108.584 73.6295 108.041 74.02 107.462 74.4178C106.865 75.8537 106.209 77.2629 105.485 78.6381C102.448 84.4253 98.2981 89.6303 93.3301 93.8845C88.3669 98.1436 82.5806 101.447 76.3814 103.538C70.1822 105.636 63.5751 106.507 57.0259 106.138C50.4768 105.784 44.0048 104.118 38.0712 101.297C32.1352 98.4783 26.7447 94.4982 22.2812 89.6448C20.8256 88.0659 19.4737 86.3923 18.2257 84.6435C17.137 84.9055 16.1497 85.0801 15.2686 85.1868C18.9306 90.5883 23.6017 95.4077 29.009 99.1987C32.5214 101.704 36.3549 103.739 40.3355 105.306C42.3198 106.111 44.3645 106.73 46.4068 107.295C46.9233 107.416 47.4399 107.537 47.9541 107.659L48.7266 107.838L49.1128 107.925L49.5015 107.996C50.0205 108.088 50.5395 108.18 51.0561 108.275C51.3144 108.318 51.5727 108.372 51.8334 108.411L52.6131 108.51C60.9246 109.628 69.2529 108.801 76.5842 106.33C77.137 106.138 77.7139 105.939 78.3102 105.733C78.9064 105.524 79.5027 105.267 80.1255 105.025C80.4369 104.901 80.7507 104.775 81.067 104.649C81.3784 104.508 81.6922 104.365 82.0108 104.222C82.3295 104.079 82.6506 103.933 82.974 103.788C83.1358 103.715 83.2975 103.64 83.4593 103.565C83.6186 103.484 83.7779 103.402 83.9396 103.32C86.5323 102.066 89.1297 100.489 91.5099 98.7791C91.8069 98.5657 92.1086 98.3571 92.4007 98.1412C92.6856 97.9156 92.9704 97.6925 93.2504 97.4718C93.8105 97.0231 94.3778 96.6035 94.892 96.1354C95.4134 95.677 95.93 95.2355 96.42 94.7916C96.8956 94.3308 97.3591 93.8821 97.8057 93.4479C98.2619 93.0235 98.6554 92.5675 99.0513 92.1455C99.4375 91.7186 99.8238 91.3233 100.154 90.9206C100.485 90.5156 100.797 90.1348 101.089 89.7782C101.376 89.4193 101.646 89.0894 101.866 88.7644C99.901 91.1874 97.7284 93.4431 95.3844 95.4974C98.863 92.3686 101.934 88.808 104.591 84.9588L105.545 83.4842L106.021 82.7468L106.462 81.9877L107.339 80.4669L108.142 78.9049L108.543 78.1239L108.905 77.3235L109.627 75.7203L110.264 74.0831L110.583 73.2633L110.858 72.4289C110.8 72.4095 110.757 72.3926 110.846 72.0118C110.853 71.973 110.863 71.9317 110.875 71.8856C110.834 71.9196 110.795 71.9487 110.754 71.9802C109.948 74.3766 108.884 76.9912 107.585 79.4943Z" fill="white"/>
<path d="M12.799 34.1892C15.3989 28.111 19.1864 22.5494 23.8672 17.895C28.5455 13.2357 34.1146 9.4908 40.1834 6.93437C43.2178 5.65615 46.3705 4.66899 49.5932 3.99957C52.8135 3.33257 56.0989 2.9833 59.3868 2.94449C65.9625 2.8596 72.5455 4.0311 78.6626 6.41775C84.7845 8.7947 90.4333 12.3722 95.2178 16.869C99.7875 21.1548 103.568 26.2774 106.32 31.902C106.407 31.8292 106.491 31.7565 106.578 31.6861C106.281 31.0677 105.975 30.4613 105.663 29.8695C104.425 27.5992 103.131 25.5231 101.818 23.6846C101.378 23.0733 101.258 22.9278 101.34 22.9836C101.415 23.0443 101.685 23.311 101.926 23.5997C102.424 24.1697 102.938 24.7348 102.112 23.4639C101.67 22.8478 101.069 22.1153 100.432 21.2906C100.099 20.8904 99.7393 20.483 99.3772 20.0585C99.1961 19.8475 99.0126 19.6341 98.8268 19.4206C98.6433 19.2072 98.4381 19.0059 98.245 18.7973C97.8539 18.3849 97.4629 17.9726 97.079 17.57C96.6855 17.1771 96.2872 16.806 95.9131 16.4446C95.1744 15.7097 94.4429 15.1057 93.8732 14.6061C93.3349 14.0725 93.2166 13.9173 93.318 13.9439C93.4242 13.9658 93.7356 14.1841 94.0543 14.3975C94.6867 14.8268 95.3265 15.261 94.2305 14.1865C94.0905 14.0531 93.9263 13.8954 93.7405 13.7184C93.5498 13.5413 93.3228 13.3642 93.079 13.1581C92.8328 12.9568 92.5673 12.7385 92.2848 12.5056C92 12.2777 91.7055 12.0205 91.3699 11.7877C91.0416 11.55 90.6964 11.3002 90.344 11.0407C89.9867 10.786 89.627 10.5119 89.2359 10.2669C88.8497 10.0171 88.4562 9.76001 88.0579 9.50291C87.86 9.37436 87.6596 9.24582 87.4592 9.11484L86.8388 8.75588C86.0084 8.27806 85.1901 7.78086 84.3621 7.37581C83.9541 7.16479 83.551 6.95619 83.1623 6.75488C82.7737 6.55356 82.3802 6.39106 82.0132 6.214C80.5479 5.50577 79.2903 5.03767 78.5902 4.71993C78.3246 4.60594 78.0784 4.51376 77.8515 4.43615C77.6246 4.35611 77.4194 4.28091 77.2359 4.21542C76.869 4.08202 76.5842 3.97773 76.3741 3.90011C75.9589 3.74488 75.8479 3.69395 75.9879 3.73033C76.1279 3.76671 76.5166 3.88556 77.0983 4.07475C77.3904 4.16934 77.7284 4.28093 78.1098 4.40462C78.4888 4.53075 78.8992 4.70295 79.3506 4.87273C79.7972 5.04736 80.2824 5.22928 80.7869 5.43544C81.2842 5.65858 81.8081 5.89384 82.3512 6.13638C82.6216 6.26008 82.9016 6.37652 83.1768 6.51477C83.4496 6.65302 83.7272 6.79611 84.0072 6.93679C84.2872 7.07989 84.5721 7.22543 84.8569 7.37095C85.1442 7.51648 85.4315 7.66199 85.7115 7.82935C87.9951 9.06876 90.2257 10.592 92.0772 11.972C91.4882 11.4773 91.4834 11.4821 91.8455 11.7222C92.1931 11.9817 92.8714 12.5202 93.6294 13.1168C94.3778 13.7256 95.1623 14.4387 95.7899 14.965C96.391 15.5229 96.8159 15.9134 96.84 15.8916C96.9221 15.8067 97.0187 15.7072 95.9589 14.5624C95.6837 14.2859 95.3361 13.9464 94.8968 13.5268C94.6747 13.3182 94.4357 13.0829 94.1605 12.8379C93.8805 12.6002 93.5715 12.3407 93.2383 12.0569C92.9004 11.778 92.5407 11.4627 92.1351 11.1474C91.7224 10.8394 91.2782 10.5071 90.8026 10.1481C90.5612 9.97104 90.3174 9.77942 90.0519 9.59993C89.7863 9.42045 89.5111 9.23613 89.2263 9.04452C88.6542 8.66615 88.0555 8.24168 87.3772 7.8536C84.7 6.23582 87.4979 7.64017 87.563 7.53588C79.4641 2.68011 69.8539 0.0388031 60.1376 0.00242233C57.7115 0.036377 55.2709 0.133396 52.8545 0.487511C51.6403 0.616062 50.4429 0.873146 49.2383 1.07931C48.6397 1.19815 48.0458 1.35096 47.4496 1.48436L46.5564 1.69294C46.2595 1.76328 45.9674 1.85789 45.6705 1.93793L43.9034 2.44484C43.3216 2.63402 42.7423 2.83778 42.1629 3.03424L41.2939 3.33013L40.4393 3.66969C39.8696 3.89768 39.2975 4.1184 38.7302 4.35368C37.6173 4.8703 36.4828 5.34326 35.4037 5.93022L34.5854 6.35226C34.3126 6.49294 34.0374 6.63119 33.7743 6.78884L32.181 7.71293C30.0905 9.00085 28.0434 10.3688 26.1484 11.9332L25.4266 12.5056L24.7338 13.112C24.2727 13.5171 23.8044 13.9148 23.353 14.3272C22.4743 15.1833 21.5666 16.0104 20.7435 16.92C17.3518 20.4636 14.5033 24.4947 12.1907 28.7756C8.6783 35.368 6.6095 42.6371 6.01807 49.911C7.06091 48.5406 8.18825 47.1775 9.37353 45.8484C10.0519 41.8439 11.1985 37.9196 12.799 34.1892Z" fill="white"/>
<path d="M111.493 51.6671C111.534 52.0406 111.532 52.3802 111.546 52.6858C111.558 52.9938 111.57 53.2679 111.58 53.5128C111.607 54.0028 111.626 54.3787 111.64 54.6601C111.662 55.2349 111.686 55.4265 111.715 55.4241C111.768 55.4217 111.829 54.6528 111.891 54.6528C111.882 52.8968 111.785 51.1456 111.609 49.409L111.346 49.7316C111.406 50.3767 111.457 51.0195 111.493 51.6671Z" fill="white"/>
<path d="M111.587 55.167C111.58 54.7013 111.556 54.3884 111.534 54.2865C111.515 54.1847 111.495 54.2914 111.479 54.6528C111.411 55.3513 111.418 57.0346 111.129 60.0033C111.092 60.355 111.049 60.7067 111.005 61.0584C111.143 60.9371 111.283 60.8159 111.421 60.6897C111.631 58.3007 111.643 56.2681 111.587 55.167Z" fill="white"/>
<path d="M111.674 60.0591C111.657 60.2168 111.643 60.3648 111.626 60.5054C111.655 60.4788 111.684 60.4545 111.713 60.4278C111.713 60.1877 111.701 60.0616 111.674 60.0591Z" fill="white"/>
<path d="M47.6644 25.6492C51.4496 24.0217 55.6186 23.1194 60 23.1194C62.7543 23.1194 65.4218 23.476 67.9662 24.1454C68.5431 24.0217 69.0283 23.9611 69.4315 23.9611C69.5135 23.9611 69.5908 23.9635 69.656 23.9659C71.8093 24.0605 72.8956 25.215 73.5329 26.1901C76.5069 27.6211 79.2227 29.5081 81.5908 31.7614C82.2208 31.2059 82.9233 30.6044 83.6644 30.0029C77.5377 24.0629 69.1901 20.4054 60.0048 20.4054C54.0422 20.4054 48.4345 21.9455 43.5558 24.6523C45.0959 24.7227 46.4791 25.0622 47.6644 25.6492Z" fill="white"/>
<path d="M87.621 69.6373C86.1678 72.3344 84.3331 74.7962 82.1919 76.95C76.5069 82.6596 68.6711 86.1862 60 86.1862C51.3289 86.1862 43.4906 82.6596 37.8081 76.95C37.3108 76.4504 36.8328 75.9338 36.3717 75.405C35.6379 75.9556 34.904 76.4843 34.1702 76.9937C34.7254 77.6413 35.3023 78.267 35.901 78.8686C42.064 85.0632 50.595 88.9003 60.0024 88.8978C69.4098 88.8978 77.9384 85.0632 84.1038 78.8686C85.6777 77.2872 87.0996 75.5505 88.3428 73.6829C87.86 72.2713 87.6717 70.8403 87.621 69.6373Z" fill="white"/>
<path d="M28.9584 48.2763C29.4291 47.8033 31.6451 45.6447 32.3838 45.6447C33.0549 45.6447 33.3905 46.1176 33.0549 47.1969L33.1901 47.3328C39.7079 41.662 43.9397 35.5863 43.9397 33.3597C43.9397 32.2125 43.201 31.7395 42.1267 32.0087C40.9173 32.3459 33.2577 32.6151 18.2088 50.3039C13.5063 55.8388 10.0785 63.3335 10.0785 68.4633C10.0785 73.2561 12.3621 76.0914 17.1998 76.0914C25.6657 76.0914 40.4466 65.0192 46.8292 59.3509C47.032 62.7926 45.9553 63.7386 43.4037 66.1689C30.303 78.8589 19.1479 82.9094 12.8328 82.9094C5.37598 82.9094 0 78.2525 0 70.4886C0 60.5661 8.26313 49.8989 15.1841 43.3502C20.8956 37.8832 35.0054 27.0802 43.0006 27.0802C47.032 27.0802 49.6512 29.2413 49.854 33.4931C50.3247 42.6056 32.9897 59.8869 24.5238 61.17C22.5757 61.4392 20.7604 60.0907 20.7604 57.9296C20.7604 55.9043 22.5733 53.8791 23.9855 52.6639L28.9584 48.2763Z" fill="white"/>
<path d="M75.2493 57.5246C81.5643 49.2222 83.8503 45.5089 86.134 41.0533C87.2758 38.8922 87.0079 38.15 86.2692 38.15C85.4629 38.15 84.6566 39.028 84.1859 39.5689L68.0604 57.1195L57.9819 70.7554C56.8401 72.3077 55.1599 74.8738 53.0091 74.8738C50.1871 74.8738 48.8425 69.5403 48.1038 67.4471L62.1461 49.6248C69.1998 36.9349 67.9904 35.5839 66.8485 35.5839C66.3102 35.5839 65.3036 36.1248 64.7653 36.394C44.0724 46.1152 47.2975 46.251 43.8697 46.251C42.7954 46.251 41.9216 45.373 42.2571 43.7528C42.9282 40.1074 43.4665 36.394 44.0048 35.7876C44.5456 35.0648 44.2825 35.0939 48.4659 32.0888C48.9704 31.725 49.5715 34.0971 49.5715 34.0971C49.5715 34.0971 49.2698 34.3663 49.1105 34.5046L49.2456 34.6404L56.8377 31.1307C57.644 30.7936 67.1165 26.2701 69.5353 26.406C71.1479 26.4739 71.4158 27.4174 72.0893 28.567L73.7019 31.4024C74.1726 32.2804 74.5082 32.9547 74.5082 33.9685C74.5082 36.1951 71.0827 43.2168 70.3416 45.715L70.4768 45.8508L81.1587 35.4553C83.6452 33.0929 89.3567 28.0286 92.1111 27.9631C93.5884 27.8952 97.0163 29.1103 97.0163 32.62C97.0163 37.6164 89.7598 47.6069 87.0054 51.8587L87.1406 51.9945C95.4038 44.8394 103.131 37.4806 111.932 30.4589C112.806 29.7167 114.151 28.2978 115.36 28.2978C117.176 28.2978 119.998 32.6855 119.998 34.1044C119.998 35.4553 117.914 37.8177 117.108 38.8291L106.694 51.587C103.604 55.3683 98.9668 61.7812 98.9668 66.9111C98.9668 68.2621 99.7055 70.2194 101.318 70.2194C103.199 70.2194 108.439 67.1827 117.511 58.3371L117.779 60.9032C116.167 65.5601 101.721 77.0374 95.9421 77.0374C91.5076 77.0374 90.0302 72.7855 90.0302 68.8684C90.0302 60.7674 98.5637 50.6411 103.266 44.4999L103.131 44.364C91.7103 54.0853 88.0145 57.1219 77.4653 70.5565C76.4563 71.8396 73.2336 75.6864 71.5534 75.6864C68.9342 75.6864 67.9928 70.8258 67.9928 68.8684C67.9928 66.979 69.6053 64.9537 70.6796 63.5348L75.2493 57.5246Z" fill="white"/>
</g>
<defs>
<clipPath id="clip0_19_2965">
<rect width="120" height="109" fill="white"/>
</clipPath>
</defs>
</svg>
