<svg width="38" height="38" viewBox="0 0 38 38" fill="none" xmlns="http://www.w3.org/2000/svg">
<g clip-path="url(#clip0_11_2820)">
<path d="M33 0H5C2.23858 0 0 2.23858 0 5V33C0 35.7614 2.23858 38 5 38H33C35.7614 38 38 35.7614 38 33V5C38 2.23858 35.7614 0 33 0Z" fill="url(#paint0_linear_11_2820)"/>
<path d="M14.7562 24.776C14.4095 24.6744 14.0685 24.5541 13.7347 24.4158C14.0753 24.9002 14.3879 25.4036 14.6711 25.9236C14.6774 25.5398 14.7058 25.1566 14.7562 24.776Z" fill="url(#paint1_linear_11_2820)"/>
<path d="M23.2438 24.776C23.2942 25.1566 23.3226 25.5398 23.329 25.9236C23.6121 25.4036 23.9247 24.9002 24.2653 24.4158C23.9314 24.5539 23.5905 24.6741 23.2438 24.776Z" fill="url(#paint2_linear_11_2820)"/>
<path d="M20.7815 26.7246C20.7815 26.0133 20.0047 25.4341 19.0487 25.4341C18.0926 25.4341 17.3143 26.0133 17.3143 26.7246C17.3143 27.436 18.0926 28.0151 19.0487 28.0151C20.0047 28.0151 20.7815 27.436 20.7815 26.7246Z" fill="url(#paint3_linear_11_2820)"/>
<path d="M17.553 29.4363C17.7014 29.5231 17.8577 29.5959 18.0196 29.6537C18.6764 29.8991 19.3997 29.8991 20.0564 29.6537C20.2061 29.5974 20.3501 29.5271 20.4866 29.4439C20.38 29.4391 20.2739 29.4274 20.1689 29.409C19.7256 29.3268 19.3179 29.1115 19 28.7918C18.6819 29.1113 18.2743 29.3265 17.8311 29.409C17.7384 29.4242 17.6472 29.4348 17.553 29.4424V29.4363Z" fill="url(#paint4_linear_11_2820)"/>
<path d="M29.8437 22.4641C29.892 22.4299 29.9492 22.4105 30.0083 22.4084C30.0675 22.4062 30.1259 22.4213 30.1766 22.4519C30.4998 22.6721 30.7896 22.9378 31.0369 23.2408C30.8506 22.4231 30.5963 21.6223 30.2769 20.8468C29.8589 20.6219 28.2599 19.7144 27.3251 18.5303C27.6291 19.6688 27.6078 20.7404 27.2597 21.6479C26.9177 22.508 26.3149 23.2394 25.536 23.7394C25.3521 23.9628 24.2197 25.3673 23.56 26.8219C23.3609 27.2627 23.1709 27.6549 22.9946 27.9863C22.6837 28.5829 22.1627 29.0432 21.5323 29.2783C21.2203 29.7142 20.7797 30.0416 20.2723 30.2146C19.8771 30.3652 19.4578 30.4424 19.035 30.4426C18.62 30.4407 18.2085 30.3667 17.819 30.2237C17.2899 30.0492 16.8248 29.7212 16.4829 29.2813C15.8502 29.0462 15.3267 28.5855 15.0131 27.9878C14.8383 27.6549 14.6483 27.2627 14.4491 26.8219C13.7925 25.3673 12.6586 23.9628 12.4731 23.7394C11.6918 23.2401 11.0864 22.5087 10.7419 21.6479C10.3953 20.7359 10.374 19.6719 10.6765 18.5303C9.7417 19.7144 8.14266 20.6219 7.72466 20.8468C7.40521 21.6223 7.151 22.4231 6.96466 23.2408C7.21197 22.9378 7.50173 22.6721 7.82498 22.4519C7.85911 22.4311 7.89699 22.4173 7.93648 22.4112C7.97596 22.405 8.01627 22.4067 8.05509 22.4162C8.09392 22.4257 8.13049 22.4427 8.16273 22.4663C8.19497 22.4899 8.22224 22.5196 8.24298 22.5538C8.28319 22.6197 8.29678 22.6985 8.28098 22.7742C8.28098 22.7985 7.76722 25.4083 9.60642 27.17C10.5443 28.0699 11.2085 28.7691 11.6508 29.2615L11.5475 28.6535C11.5369 28.5878 11.5481 28.5203 11.5796 28.4616C11.611 28.4029 11.6609 28.3561 11.7215 28.3285C11.7821 28.3009 11.8501 28.2939 11.9151 28.3087C11.98 28.3235 12.0383 28.3592 12.081 28.4103C12.2421 28.6064 13.3547 29.9729 13.9719 31.0947C13.984 30.7755 13.9916 30.4274 13.9962 30.1021C13.9962 30.0215 14.0282 29.9441 14.0852 29.8871C14.1422 29.8301 14.2196 29.7981 14.3002 29.7981C14.3513 29.7985 14.4015 29.8118 14.4462 29.8368C14.4908 29.8618 14.5284 29.8976 14.5555 29.941C14.5555 29.9531 15.3155 31.1463 16.2534 32.4262C17.4131 34.0039 18.3601 35.0315 19.0046 35.4145C19.6475 35.0315 20.593 34.0039 21.7512 32.4277C22.6906 31.1463 23.4369 29.9531 23.4445 29.941C23.4874 29.873 23.5554 29.8248 23.6337 29.8068C23.7121 29.7889 23.7943 29.8027 23.8625 29.8452C23.9057 29.8722 23.9414 29.9096 23.9663 29.9539C23.9913 29.9983 24.0047 30.0482 24.0054 30.0991C24.0054 30.4243 24.0175 30.7739 24.0297 31.0916C24.6468 29.9699 25.7595 28.6034 25.9206 28.4073C25.9633 28.3559 26.0218 28.3201 26.0869 28.3053C26.1521 28.2905 26.2203 28.2975 26.281 28.3254C26.3418 28.3532 26.3916 28.4003 26.4229 28.4594C26.4542 28.5184 26.4652 28.5861 26.4541 28.652L26.3507 29.26C26.7931 28.7675 27.4573 28.0683 28.3951 27.1685C30.2343 25.4068 29.7267 22.7985 29.7206 22.7727C29.7099 22.7155 29.7158 22.6565 29.7376 22.6026C29.7594 22.5487 29.7963 22.5023 29.8437 22.4687V22.4641Z" fill="url(#paint5_linear_11_2820)"/>
<path d="M24.589 5.97208C23.6512 6.64696 22.5857 7.46928 21.9792 7.94808C22.355 8.14299 22.6747 8.43078 22.9079 8.78408C23.2013 8.1168 23.8822 7.07104 25.4524 6.02832C25.8882 5.73205 26.2899 5.38847 26.6501 5.00384C27.1291 4.52069 27.4869 3.93109 27.6944 3.2832C27.5576 3.03544 27.4314 2.8348 27.325 2.6752C27.0241 3.41544 26.2869 4.75 24.589 5.97208Z" fill="url(#paint6_linear_11_2820)"/>
<path d="M10.7373 2.58401C10.5804 2.80778 10.4363 3.0402 10.3056 3.28017C10.716 4.8169 11.78 5.79882 12.616 6.35514C14.1603 7.39026 14.8778 8.16698 15.2076 8.63514C15.4327 8.33121 15.7292 8.08742 16.071 7.9253C15.6803 7.58482 15.0951 7.10906 14.627 6.8841C12.803 6.00402 11.2906 3.56593 10.7373 2.58401Z" fill="url(#paint7_linear_11_2820)"/>
<path d="M14.6832 17.711C14.9766 17.9603 15.4098 18.0591 15.9737 18.0059C15.8055 17.6967 15.5602 17.4363 15.2617 17.2498C14.9631 17.0634 14.6214 16.9573 14.2698 16.9419C14.3162 17.2378 14.462 17.5091 14.6832 17.711Z" fill="url(#paint8_linear_11_2820)"/>
<path d="M23.3168 17.711C23.5362 17.5115 23.6819 17.2437 23.7302 16.951C23.3786 16.9665 23.0369 17.0725 22.7383 17.259C22.4398 17.4454 22.1945 17.7058 22.0263 18.015C22.5902 18.0591 23.0234 17.9603 23.3168 17.711Z" fill="url(#paint9_linear_11_2820)"/>
<path d="M31.5734 21.1599C31.1174 18.8526 29.3558 16.796 29.3345 16.7717C29.2891 16.7193 29.2629 16.6529 29.2604 16.5836C29.2579 16.5142 29.2792 16.4461 29.3208 16.3906C29.3623 16.335 29.4216 16.2954 29.4888 16.2781C29.556 16.2609 29.627 16.2672 29.6902 16.2959L31.1934 16.9921C30.9396 16.1424 30.1735 15.0814 28.9408 13.8852C28.2037 13.177 27.4218 12.517 26.6 11.9092C26.5494 11.8721 26.5115 11.8202 26.4916 11.7607C26.4716 11.7013 26.4706 11.6371 26.4886 11.5769C26.5066 11.5168 26.5427 11.4638 26.592 11.425C26.6414 11.3862 26.7015 11.3637 26.7642 11.3605H26.8782L25.9662 11.023C25.8906 10.995 25.8292 10.9381 25.7956 10.8649C25.762 10.7916 25.7588 10.708 25.7868 10.6324C25.8033 10.5867 25.831 10.546 25.8674 10.5138L26.6638 9.79032L24.5146 10.2326C24.437 10.2476 24.3567 10.2318 24.2906 10.1886C24.2245 10.1454 24.1778 10.0781 24.1604 10.0011C24.143 9.92402 24.1563 9.84323 24.1974 9.77581C24.2386 9.70839 24.3043 9.65962 24.3808 9.63984H24.3914L27.629 8.968C27.6942 8.95491 27.7619 8.96355 27.8217 8.9926C27.8815 9.02165 27.9302 9.0695 27.9602 9.12884C27.9902 9.18817 27.9999 9.2557 27.9879 9.3211C27.9759 9.38649 27.9427 9.44613 27.8935 9.49088L26.6471 10.6233L28.4909 11.3073C28.5555 11.3325 28.6096 11.379 28.6441 11.4392C28.6786 11.4993 28.6916 11.5695 28.6807 11.638C28.6699 11.7065 28.636 11.7692 28.5846 11.8158C28.5332 11.8624 28.4674 11.89 28.3982 11.894L27.6245 11.9305C28.006 12.2345 28.5122 12.6555 29.0426 13.1465C29.4986 9.20512 28.9514 6.49648 28.3997 4.8944C28.2887 4.57368 28.1747 4.2864 28.0607 4.02496C27.4208 5.39296 26.0847 6.33384 25.7807 6.53296C23.788 7.85536 23.3746 9.16104 23.3016 9.48328C23.3882 9.6748 23.4354 9.81008 23.443 9.83136C23.4627 9.90586 23.4534 9.98507 23.4169 10.053C23.3805 10.1209 23.3196 10.1724 23.2466 10.1971C23.1736 10.2218 23.0939 10.2179 23.0237 10.1861C22.9535 10.1543 22.898 10.0971 22.8684 10.0259C22.7574 9.72438 22.611 9.43711 22.4322 9.17016C22.0826 8.6564 21.698 8.39648 21.2922 8.39648C21.2297 8.39574 21.169 8.37579 21.1183 8.33934C21.0676 8.30289 21.0294 8.2517 21.0088 8.19275C20.9882 8.1338 20.9863 8.06993 21.0032 8.00984C21.0202 7.94975 21.0553 7.89634 21.1037 7.85688C21.1113 7.85688 21.4366 7.5924 21.9184 7.22C21.6045 7.08392 21.2768 6.982 20.941 6.916C19.7468 6.66379 18.5106 6.68979 17.328 6.992C16.9818 7.07379 16.6451 7.19146 16.3233 7.34312C16.6531 7.62432 16.8887 7.8508 16.91 7.87056C16.9531 7.91273 16.9827 7.96676 16.9951 8.0258C17.0074 8.08484 17.0019 8.14621 16.9792 8.2021C16.9566 8.258 16.9178 8.30589 16.8679 8.33969C16.8179 8.37349 16.759 8.39167 16.6987 8.39192C16.2929 8.39192 15.9098 8.65184 15.5602 9.1656C15.3812 9.43185 15.2347 9.71865 15.124 10.0198C15.094 10.0902 15.0386 10.1467 14.9688 10.178C14.8991 10.2094 14.82 10.2132 14.7475 10.1889C14.675 10.1645 14.6143 10.1137 14.5776 10.0466C14.5409 9.97948 14.5309 9.901 14.5494 9.8268C14.6283 9.60679 14.7244 9.39333 14.8367 9.1884C14.6847 8.90872 14.1071 8.0864 12.271 6.85672C11.2253 6.18061 10.408 5.20483 9.92561 4.05688C9.81769 4.30768 9.70673 4.58432 9.60185 4.89136C9.05009 6.49192 8.51201 9.20056 8.95889 13.1434C9.48937 12.6494 9.99553 12.2314 10.377 11.9274L9.60337 11.8925C9.53347 11.8892 9.46683 11.8619 9.41471 11.8152C9.3626 11.7685 9.32818 11.7053 9.31729 11.6361C9.30639 11.567 9.31968 11.4963 9.35491 11.4358C9.39013 11.3753 9.44514 11.3289 9.51065 11.3042L11.3544 10.6172L10.108 9.48328C10.0623 9.4378 10.0323 9.37897 10.0222 9.31529C10.0122 9.25162 10.0226 9.1864 10.0521 9.12905C10.0815 9.0717 10.1284 9.02519 10.186 8.99624C10.2436 8.96729 10.3089 8.95741 10.3725 8.968L13.607 9.63376C13.6488 9.63815 13.6891 9.65112 13.7256 9.67187C13.7621 9.69261 13.7938 9.72068 13.8189 9.75431C13.844 9.78793 13.8619 9.82639 13.8714 9.86726C13.8809 9.90812 13.8818 9.95051 13.8741 9.99175C13.8665 10.033 13.8503 10.0722 13.8268 10.1069C13.8032 10.1416 13.7727 10.1711 13.7372 10.1934C13.7017 10.2157 13.6619 10.2305 13.6204 10.2367C13.5789 10.243 13.5366 10.2405 13.4961 10.2296H13.4854L11.3362 9.77968L12.1326 10.5032C12.193 10.5565 12.2299 10.6315 12.235 10.7119C12.2401 10.7922 12.2131 10.8713 12.16 10.9318C12.1262 10.967 12.0853 10.9945 12.0399 11.0124L11.1279 11.3498H11.2419C11.3057 11.3526 11.367 11.3754 11.4171 11.415C11.4671 11.4545 11.5035 11.5089 11.521 11.5702C11.5385 11.6316 11.5362 11.697 11.5145 11.757C11.4928 11.817 11.4527 11.8687 11.4 11.9046C10.5767 12.5151 9.79377 13.1781 9.05617 13.8898C7.82497 15.0845 7.05889 16.1439 6.80657 16.9921L8.30985 16.2959C8.37291 16.2679 8.44363 16.2622 8.51038 16.2797C8.57713 16.2972 8.63594 16.3369 8.67714 16.3922C8.71835 16.4476 8.73949 16.5153 8.73711 16.5842C8.73472 16.6532 8.70894 16.7193 8.66401 16.7717C8.64273 16.796 6.87497 18.8526 6.42505 21.1599C6.68041 20.8103 6.99505 20.4896 7.35073 20.3543C7.52097 20.2646 9.67633 19.1186 10.4743 17.7445C11.4274 16.1014 13.3289 15.2274 14.3336 15.2274C15.7366 15.2274 16.4616 16.0497 16.4814 17.673C16.5653 17.8187 16.6364 17.9712 16.6942 18.129C16.6944 18.1346 16.6944 18.1402 16.6942 18.1458C16.7276 18.237 16.7595 18.3297 16.7884 18.43C16.8024 18.469 16.8083 18.5104 16.8057 18.5517C16.8032 18.5931 16.7922 18.6334 16.7735 18.6704C16.7547 18.7073 16.7286 18.74 16.6968 18.7665C16.665 18.793 16.6281 18.8127 16.5884 18.8244C16.5486 18.8361 16.5069 18.8396 16.4658 18.8347C16.4247 18.8297 16.3851 18.8164 16.3493 18.7955C16.3135 18.7747 16.2824 18.7467 16.2578 18.7134C16.2332 18.6801 16.2156 18.6421 16.2062 18.6018V18.5911C16.0325 18.616 15.8573 18.6287 15.6818 18.6291C15.1736 18.6544 14.6738 18.4921 14.2774 18.1731C13.9321 17.8603 13.71 17.4345 13.6511 16.9723C13.5808 16.9623 13.5162 16.9279 13.4686 16.8752C13.421 16.8225 13.3934 16.7547 13.3905 16.6838C13.3876 16.6128 13.4096 16.543 13.4528 16.4866C13.496 16.4302 13.5575 16.3907 13.6268 16.375C14.0006 16.3109 14.3835 16.3223 14.7529 16.4085C15.1223 16.4946 15.4707 16.6538 15.7776 16.8766C15.5952 16.1591 15.1346 15.8399 14.329 15.8399C13.6086 15.8399 12.809 16.2564 12.1463 16.7838C12.3698 17.366 13.1009 19.0198 14.3078 19.4408C14.9036 19.649 15.5542 19.5198 16.2442 19.0608C16.3111 19.0213 16.3906 19.0088 16.4664 19.0261C16.5422 19.0433 16.6085 19.0889 16.6517 19.1535C16.6949 19.2181 16.7117 19.2968 16.6987 19.3734C16.6856 19.45 16.6438 19.5187 16.5817 19.5654C15.7244 20.137 14.8914 20.2874 14.1056 20.0138C12.8774 19.5837 12.1022 18.2081 11.739 17.3903C11.3301 18.237 10.7114 19.9166 11.2982 21.4396C11.777 22.6845 12.9702 23.6041 14.8443 24.1756C15.1194 22.7514 15.5857 21.3709 16.2306 20.0716C16.2708 20.0061 16.3344 19.9584 16.4084 19.9379C16.4825 19.9174 16.5615 19.9257 16.6297 19.9611C16.6979 19.9965 16.7501 20.0565 16.7759 20.1289C16.8017 20.2013 16.7991 20.2807 16.7686 20.3513C16.7489 20.3908 14.7318 24.317 15.4128 27.4694C15.4538 27.553 15.4949 27.6321 15.5359 27.7081C15.7353 28.0999 16.0545 28.4179 16.447 28.6158C16.8396 28.8138 17.2851 28.8813 17.7186 28.8086C17.9462 28.7659 18.1619 28.6746 18.351 28.541C17.3964 28.3024 16.7018 27.5804 16.7018 26.7292C16.7018 25.6819 17.7521 24.8307 19.0426 24.8307C20.333 24.8307 21.3834 25.6819 21.3834 26.7292C21.3834 27.6017 20.6522 28.3374 19.6612 28.5532C19.8446 28.6775 20.0515 28.7629 20.2692 28.804C20.7028 28.8765 21.1481 28.8088 21.5407 28.6109C21.9332 28.4131 22.2524 28.0952 22.4519 27.7035C22.493 27.6275 22.534 27.5515 22.575 27.4649C23.2575 24.3078 21.2405 20.3862 21.2192 20.3467C21.1856 20.2762 21.1805 20.1955 21.2048 20.1213C21.2292 20.0471 21.2811 19.9851 21.3499 19.9482C21.4187 19.9113 21.499 19.9022 21.5743 19.9229C21.6496 19.9436 21.714 19.9925 21.7542 20.0594C22.399 21.3588 22.8653 22.7393 23.1405 24.1634C25.0177 23.5919 26.2109 22.6723 26.6882 21.4274C27.2734 19.8998 26.6547 18.2248 26.2458 17.3797C25.8826 18.1974 25.1089 19.573 23.8777 20.0032C23.0934 20.2783 22.2604 20.1278 21.4031 19.5563C21.336 19.5116 21.2894 19.442 21.2736 19.3629C21.2578 19.2838 21.274 19.2016 21.3188 19.1345C21.3635 19.0674 21.4331 19.0208 21.5122 19.005C21.5913 18.9892 21.6734 19.0054 21.7406 19.0502C22.4306 19.5062 23.0827 19.6384 23.6786 19.4302C24.8946 19.0076 25.615 17.3569 25.8385 16.7747C25.1803 16.2458 24.3762 15.8308 23.6558 15.8308C22.8502 15.8308 22.3896 16.1485 22.2072 16.8674C22.5139 16.6441 22.8623 16.4846 23.2317 16.3982C23.6011 16.3117 23.9841 16.3002 24.358 16.3643C24.4282 16.3794 24.4908 16.4188 24.5348 16.4756C24.5787 16.5324 24.6011 16.6029 24.598 16.6747C24.5949 16.7464 24.5665 16.8148 24.5179 16.8676C24.4692 16.9204 24.4034 16.9543 24.3322 16.9632C24.2742 17.4253 24.0526 17.8513 23.7074 18.164C23.3101 18.4824 22.8101 18.6446 22.3014 18.62C22.1265 18.6187 21.9518 18.606 21.7786 18.582C21.7537 18.6555 21.7016 18.7166 21.6331 18.753C21.5646 18.7893 21.4847 18.7981 21.41 18.7775C21.3352 18.7569 21.2711 18.7085 21.2308 18.6422C21.1905 18.5759 21.1772 18.4967 21.1934 18.4209C21.2222 18.3221 21.2542 18.2278 21.2876 18.1366V18.1214C21.3469 17.964 21.4185 17.8115 21.5019 17.6654C21.5247 16.0436 22.2467 15.2198 23.6497 15.2198C24.6544 15.2198 26.5559 16.0953 27.509 17.7384C28.307 19.1064 30.4623 20.2586 30.6326 20.3467C30.9882 20.4835 31.3029 20.8027 31.5582 21.1538L31.5734 21.1599ZM16.8446 14.7212C16.7791 14.7675 16.6978 14.786 16.6186 14.7726C16.5395 14.7592 16.4688 14.7151 16.4221 14.6498C16.2366 14.3883 15.5268 14.2454 15.0845 14.2257C15.0446 14.2241 15.0054 14.2146 14.9691 14.1979C14.9328 14.1811 14.9002 14.1574 14.8731 14.128C14.846 14.0987 14.8249 14.0643 14.8111 14.0268C14.7973 13.9893 14.7911 13.9494 14.7926 13.9095C14.7942 13.8696 14.8037 13.8304 14.8204 13.7941C14.8372 13.7578 14.8609 13.7252 14.8903 13.6981C14.9196 13.671 14.9541 13.65 14.9915 13.6362C15.029 13.6224 15.0689 13.6161 15.1088 13.6177C15.3454 13.6315 15.5807 13.663 15.8126 13.7119C16.3522 13.8274 16.7246 14.025 16.9161 14.2971C16.9624 14.3627 16.9809 14.444 16.9675 14.5231C16.9541 14.6023 16.9099 14.673 16.8446 14.7197V14.7212ZM17.784 19.2386C17.7672 19.2768 17.7427 19.3112 17.7121 19.3395C17.6814 19.3678 17.6453 19.3895 17.6059 19.4033C17.5665 19.417 17.5247 19.4225 17.4831 19.4194C17.4415 19.4163 17.4009 19.4046 17.364 19.3852C17.3271 19.3657 17.2946 19.3389 17.2685 19.3063C17.2424 19.2738 17.2233 19.2362 17.2124 19.1959C17.2014 19.1556 17.1989 19.1136 17.2049 19.0723C17.211 19.031 17.2254 18.9914 17.2474 18.9559C17.8463 17.8402 17.5256 16.5026 17.5226 16.489C17.5024 16.4108 17.5141 16.3277 17.5552 16.2582C17.5962 16.1886 17.6632 16.1382 17.7414 16.1181C17.8197 16.0979 17.9027 16.1097 17.9722 16.1507C18.0418 16.1918 18.0922 16.2588 18.1123 16.337C18.1275 16.4008 18.4938 17.9117 17.7825 19.2386H17.784ZM19.2706 12.7163C19.2706 12.7969 19.2385 12.8743 19.1815 12.9313C19.1245 12.9883 19.0472 13.0203 18.9666 13.0203C18.8859 13.0203 18.8086 12.9883 18.7516 12.9313C18.6946 12.8743 18.6626 12.7969 18.6626 12.7163V8.32048C18.6626 8.23986 18.6946 8.16253 18.7516 8.10552C18.8086 8.04851 18.8859 8.01648 18.9666 8.01648C19.0472 8.01648 19.1245 8.04851 19.1815 8.10552C19.2385 8.16253 19.2706 8.23986 19.2706 8.32048V12.7163ZM20.6294 19.3618C20.5586 19.3996 20.4758 19.4079 20.3989 19.3848C20.322 19.3617 20.2573 19.3092 20.219 19.2386C19.5077 17.9117 19.874 16.4008 19.8907 16.337C19.9133 16.2616 19.9641 16.198 20.0326 16.1594C20.1011 16.1207 20.1819 16.1101 20.258 16.1298C20.3341 16.1495 20.3997 16.1979 20.4409 16.2648C20.4821 16.3318 20.4957 16.4121 20.479 16.489C20.479 16.5102 20.1582 17.8433 20.7541 18.9559C20.7918 19.0269 20.7998 19.1099 20.7765 19.1868C20.7531 19.2638 20.7003 19.3283 20.6294 19.3663V19.3618ZM22.9094 14.2257C22.4671 14.2439 21.7573 14.3883 21.5718 14.6498C21.5503 14.6858 21.5216 14.717 21.4874 14.7414C21.4533 14.7657 21.4145 14.7828 21.3734 14.7914C21.3323 14.8001 21.2899 14.8001 21.2489 14.7915C21.2078 14.783 21.1689 14.766 21.1347 14.7417C21.1005 14.7174 21.0717 14.6863 21.0501 14.6503C21.0285 14.6143 21.0146 14.5742 21.0093 14.5326C21.004 14.491 21.0073 14.4487 21.0191 14.4085C21.0309 14.3682 21.0509 14.3308 21.0778 14.2986C21.28 14.0266 21.6478 13.832 22.192 13.7134C22.4238 13.6638 22.6591 13.6323 22.8958 13.6192C22.9764 13.616 23.055 13.6449 23.1143 13.6996C23.1736 13.7544 23.2087 13.8304 23.2119 13.911C23.2152 13.9917 23.1862 14.0703 23.1315 14.1296C23.0768 14.1889 23.0007 14.224 22.9201 14.2272L22.9094 14.2257Z" fill="url(#paint10_linear_11_2820)"/>
</g>
<defs>
<linearGradient id="paint0_linear_11_2820" x1="13.072" y1="-0.79648" x2="26.0376" y2="42.5038" gradientUnits="userSpaceOnUse">
<stop stop-color="#5112AC"/>
<stop offset="1" stop-color="#390C78"/>
</linearGradient>
<linearGradient id="paint1_linear_11_2820" x1="14.1543" y1="24.2881" x2="14.6452" y2="25.9282" gradientUnits="userSpaceOnUse">
<stop stop-color="#80FFDB"/>
<stop offset="1" stop-color="#390C78"/>
</linearGradient>
<linearGradient id="paint2_linear_11_2820" x1="182.027" y1="268.49" x2="186.531" y2="278.674" gradientUnits="userSpaceOnUse">
<stop stop-color="#80FFDB"/>
<stop offset="1" stop-color="#390C78"/>
</linearGradient>
<linearGradient id="paint3_linear_11_2820" x1="443.077" y1="457.539" x2="453.109" y2="502.55" gradientUnits="userSpaceOnUse">
<stop stop-color="#80FFDB"/>
<stop offset="1" stop-color="#390C78"/>
</linearGradient>
<linearGradient id="paint4_linear_11_2820" x1="381.144" y1="227.19" x2="382.008" y2="235.272" gradientUnits="userSpaceOnUse">
<stop stop-color="#80FFDB"/>
<stop offset="1" stop-color="#390C78"/>
</linearGradient>
<linearGradient id="paint5_linear_11_2820" x1="2705.46" y1="1864.98" x2="3138.53" y2="3926.97" gradientUnits="userSpaceOnUse">
<stop stop-color="#80FFDB"/>
<stop offset="1" stop-color="#390C78"/>
</linearGradient>
<linearGradient id="paint6_linear_11_2820" x1="933.153" y1="147.272" x2="988.98" y2="321.713" gradientUnits="userSpaceOnUse">
<stop stop-color="#80FFDB"/>
<stop offset="1" stop-color="#390C78"/>
</linearGradient>
<linearGradient id="paint7_linear_11_2820" x1="471.304" y1="88.5705" x2="555.388" y2="356.154" gradientUnits="userSpaceOnUse">
<stop stop-color="#80FFDB"/>
<stop offset="1" stop-color="#390C78"/>
</linearGradient>
<linearGradient id="paint8_linear_11_2820" x1="181.305" y1="135.778" x2="183.343" y2="146.528" gradientUnits="userSpaceOnUse">
<stop stop-color="#80FFDB"/>
<stop offset="1" stop-color="#390C78"/>
</linearGradient>
<linearGradient id="paint9_linear_11_2820" x1="277.461" y1="138.268" x2="278.493" y2="143.759" gradientUnits="userSpaceOnUse">
<stop stop-color="#80FFDB"/>
<stop offset="1" stop-color="#390C78"/>
</linearGradient>
<linearGradient id="paint10_linear_11_2820" x1="2378.42" y1="450.642" x2="3623.51" y2="4664.75" gradientUnits="userSpaceOnUse">
<stop stop-color="#80FFDB"/>
<stop offset="1" stop-color="#390C78"/>
</linearGradient>
<clipPath id="clip0_11_2820">
<rect width="38" height="38" fill="white"/>
</clipPath>
</defs>
</svg>
